<svg width="1100" height="569" viewBox="0 0 1100 569" fill="none" xmlns="http://www.w3.org/2000/svg">
<path fill-rule="evenodd" clip-rule="evenodd" d="M15.5 340.561C15.469 332.011 8.54135 325.09 0 325.09C8.56041 325.09 15.5 318.137 15.5 309.561C15.5309 318.111 22.4586 325.032 31 325.032C22.4394 325.032 15.5 331.985 15.5 340.561Z" fill="white"/>
<path fill-rule="evenodd" clip-rule="evenodd" d="M918.5 98C918.469 89.4501 911.541 82.5287 903 82.5287C911.56 82.5287 918.5 75.5762 918.5 67C918.531 75.5499 925.459 82.4713 934 82.4713C925.439 82.4713 918.5 89.4238 918.5 98Z" fill="white"/>
<line x1="191.733" y1="1.56067" x2="191.733" y2="568.35" stroke="white" stroke-opacity="0.2"/>
<path d="M736 324.561L736 568.561" stroke="url(#paint0_linear_212_9)" stroke-opacity="0.2"/>
<path d="M736 1.56079L736 81.5608" stroke="url(#paint1_linear_212_9)" stroke-opacity="0.2"/>
<path d="M554 324.561L554 568.561" stroke="url(#paint2_linear_212_9)" stroke-opacity="0.2"/>
<path d="M554 1.56079L554 81.5608" stroke="url(#paint3_linear_212_9)" stroke-opacity="0.2"/>
<path d="M373 324.561L373 568.561" stroke="url(#paint4_linear_212_9)" stroke-opacity="0.2"/>
<path d="M373 1.56079L373 81.5608" stroke="url(#paint5_linear_212_9)" stroke-opacity="0.2"/>
<line x1="917.947" y1="1.56067" x2="917.947" y2="568.35" stroke="white" stroke-opacity="0.2"/>
<line x1="1099.5" y1="1.56067" x2="1099.5" y2="568.35" stroke="white" stroke-opacity="0.2"/>
<line x1="9.5" y1="1.56079" x2="9.49998" y2="568.35" stroke="white" stroke-opacity="0.2"/>
<line x1="9.68066" y1="405.056" x2="1095.61" y2="405.056" stroke="white" stroke-opacity="0.2"/>
<line x1="9.68066" y1="324.257" x2="1095.61" y2="324.257" stroke="white" stroke-opacity="0.2"/>
<line x1="10" y1="243.061" x2="192" y2="243.061" stroke="white" stroke-opacity="0.2"/>
<line x1="917" y1="243.061" x2="1096" y2="243.061" stroke="white" stroke-opacity="0.2"/>
<line x1="919" y1="163.061" x2="1096" y2="163.061" stroke="white" stroke-opacity="0.2"/>
<line x1="10" y1="163.061" x2="192" y2="163.061" stroke="white" stroke-opacity="0.2"/>
<line x1="9.68066" y1="81.8604" x2="1095.61" y2="81.8604" stroke="white" stroke-opacity="0.2"/>
<line x1="9.68066" y1="1.06079" x2="1095.61" y2="1.06081" stroke="white" stroke-opacity="0.2"/>
<line x1="9.68066" y1="485.855" x2="1095.61" y2="485.855" stroke="white" stroke-opacity="0.2"/>
<defs>
<linearGradient id="paint0_linear_212_9" x1="736.197" y1="257.487" x2="736.59" y2="257.487" gradientUnits="userSpaceOnUse">
<stop stop-color="white"/>
<stop offset="1" stop-color="white" stop-opacity="0"/>
</linearGradient>
<linearGradient id="paint1_linear_212_9" x1="736.005" y1="254.874" x2="736.014" y2="254.874" gradientUnits="userSpaceOnUse">
<stop stop-color="white"/>
<stop offset="1" stop-color="white" stop-opacity="0"/>
</linearGradient>
<linearGradient id="paint2_linear_212_9" x1="554.197" y1="257.487" x2="554.59" y2="257.487" gradientUnits="userSpaceOnUse">
<stop stop-color="white"/>
<stop offset="1" stop-color="white" stop-opacity="0"/>
</linearGradient>
<linearGradient id="paint3_linear_212_9" x1="554.005" y1="254.874" x2="554.014" y2="254.874" gradientUnits="userSpaceOnUse">
<stop stop-color="white"/>
<stop offset="1" stop-color="white" stop-opacity="0"/>
</linearGradient>
<linearGradient id="paint4_linear_212_9" x1="373.197" y1="257.487" x2="373.59" y2="257.487" gradientUnits="userSpaceOnUse">
<stop stop-color="white"/>
<stop offset="1" stop-color="white" stop-opacity="0"/>
</linearGradient>
<linearGradient id="paint5_linear_212_9" x1="373.005" y1="254.874" x2="373.014" y2="254.874" gradientUnits="userSpaceOnUse">
<stop stop-color="white"/>
<stop offset="1" stop-color="white" stop-opacity="0"/>
</linearGradient>
</defs>
</svg>
